<svg id="Outline" xmlns="http://www.w3.org/2000/svg" width="40" height="40" viewBox="0 0 40 40">
  <defs>
    <style>
      .cls-1 {
        fill: none;
      }
    </style>
  </defs>
  <g>
    <rect class="cls-1" width="40" height="40"/>
    <g>
      <path d="M35,24H31.94934A11.99031,11.99031,0,0,0,8.05066,24H5a1,1,0,0,0,0,2H35a1,1,0,0,0,0-2ZM20,15a10.01388,10.01388,0,0,1,9.94928,9H10.05072A10.01388,10.01388,0,0,1,20,15Z"/>
      <path d="M32,31H8a1,1,0,0,1,0-2H32a1,1,0,0,1,0,2Z"/>
      <path d="M26,36H14a1,1,0,0,1,0-2H26a1,1,0,0,1,0,2Z"/>
      <path d="M20,10a.99943.99943,0,0,1-1-1V5a1,1,0,0,1,2,0V9A.99943.99943,0,0,1,20,10Z"/>
      <path d="M8.68652,14.68652a.99672.99672,0,0,1-.707-.293l-2.8291-2.8291a.99989.99989,0,0,1,1.41406-1.41406l2.8291,2.8291a1,1,0,0,1-.707,1.707Z"/>
      <path d="M31.31348,14.68652a1,1,0,0,1-.707-1.707l2.82812-2.8291a.99989.99989,0,0,1,1.41406,1.41406l-2.82812,2.8291A.99672.99672,0,0,1,31.31348,14.68652Z"/>
    </g>
  </g>
</svg>
